<?xml version="1.0" standalone="no"?>
<!DOCTYPE svg PUBLIC "-//W3C//DTD SVG 20010904//EN"
 "http://www.w3.org/TR/2001/REC-SVG-20010904/DTD/svg10.dtd">
<svg version="1.0" xmlns="http://www.w3.org/2000/svg"
 width="512.000000pt" height="512.000000pt" viewBox="0 0 512.000000 512.000000"
 preserveAspectRatio="xMidYMid meet">

<g transform="translate(0.000000,512.000000) scale(0.100000,-0.100000)"
fill="#000000" stroke="none">
<path d="M0 2560 l0 -2560 2560 0 2560 0 0 2560 0 2560 -2560 0 -2560 0 0
-2560z m3197 2137 c162 -38 755 -402 962 -592 97 -89 418 -476 539 -651 57
-82 139 -357 153 -514 16 -183 23 -764 10 -864 -21 -155 -121 -532 -198 -746
-47 -131 -146 -320 -168 -320 -34 0 -306 42 -351 54 -82 22 -153 63 -165 94
-6 15 -25 50 -43 77 -50 75 -51 85 -17 170 45 113 44 115 -53 84 -53 -17 -64
-12 -93 44 -24 45 -28 64 -28 137 0 47 -4 90 -8 97 -4 6 -31 21 -60 31 -97 37
-137 57 -137 69 0 7 17 26 38 42 64 52 113 119 128 174 7 29 23 60 35 70 19
15 21 24 16 73 -7 64 -47 140 -83 156 -30 14 -30 19 2 93 l25 60 146 80 c120
66 150 87 174 123 16 24 29 47 29 51 0 15 -116 43 -210 49 -87 6 -95 9 -92 27
13 89 31 185 40 206 12 31 7 39 -23 39 -19 0 -27 14 -58 103 -39 113 -42 130
-57 335 -12 154 -32 221 -102 340 -41 70 -183 216 -263 269 -125 84 -290 152
-462 189 -79 18 -82 19 -88 51 -3 18 -17 45 -30 60 -23 27 -26 28 -122 27
-103 -2 -232 -26 -245 -47 -4 -7 -8 -28 -8 -49 0 -20 -6 -39 -12 -42 -13 -6
10 -4 127 14 99 15 231 15 253 1 7 -4 15 -30 17 -56 4 -44 25 -79 33 -55 7 20
22 9 22 -15 0 -24 -3 -25 -58 -25 -71 0 -284 -26 -326 -39 -17 -6 -84 -22
-149 -36 -111 -24 -229 -64 -252 -87 -5 -5 3 -4 20 2 119 45 393 59 528 26
148 -35 287 -1 287 71 0 32 28 30 137 -8 103 -36 139 -54 248 -121 121 -73
164 -119 226 -234 32 -63 58 -100 65 -97 13 5 64 -86 90 -160 12 -35 12 -38
-2 -33 -9 3 -26 6 -38 6 -19 0 -27 10 -44 63 -12 34 -21 54 -22 45 0 -26 -12
-22 -46 13 -16 18 -53 51 -83 75 -51 40 -56 42 -81 29 -14 -7 -42 -16 -60 -18
-19 -3 -35 -6 -35 -7 0 -1 -17 -4 -37 -5 -21 -2 -38 0 -38 4 0 17 -124 141
-142 141 -13 0 -19 -11 -25 -42 -3 -24 -9 -36 -11 -28 -3 8 -11 -6 -18 -30
-23 -85 -46 -135 -71 -162 -38 -40 -152 -114 -193 -126 -48 -13 -145 -78 -130
-87 14 -9 89 2 142 21 22 8 58 14 79 14 41 0 91 -18 87 -32 -2 -4 -37 -25 -78
-46 -60 -30 -80 -46 -103 -83 -36 -59 -47 -126 -23 -135 45 -17 269 80 329
143 37 39 40 40 80 31 23 -5 44 -14 48 -20 3 -5 17 -56 29 -113 16 -74 20
-114 15 -141 -5 -22 -8 -42 -7 -46 3 -14 -7 -9 -65 30 -54 35 -60 37 -141 37
l-84 0 -34 -39 c-19 -22 -40 -57 -46 -79 -10 -35 -9 -48 11 -106 13 -36 35
-85 50 -109 l26 -43 60 7 c104 11 126 23 162 84 17 30 38 64 47 75 14 19 14
18 14 -13 -1 -40 5 -47 24 -28 13 12 19 11 46 -11 18 -13 30 -29 27 -34 -4 -5
2 -9 12 -9 15 0 16 -2 3 -10 -9 -6 -10 -10 -3 -10 12 0 70 67 137 156 47 64
71 75 164 82 l74 5 -84 -102 c-46 -57 -104 -133 -130 -169 -26 -37 -57 -80
-69 -96 -22 -28 -136 -116 -151 -116 -16 0 -116 -70 -122 -86 -4 -9 0 -27 9
-40 8 -13 15 -31 15 -40 0 -10 3 -14 6 -11 8 8 62 -23 68 -39 5 -12 -48 -59
-126 -113 -27 -17 -48 -38 -48 -46 0 -17 -39 -38 -99 -55 -24 -6 -81 -29 -126
-49 -131 -61 -247 -63 -370 -6 -27 12 -77 30 -109 40 -33 9 -86 30 -118 46
-31 16 -62 29 -67 29 -6 0 -50 23 -97 51 -95 56 -163 114 -193 163 -18 30 -72
218 -86 301 -3 22 -18 79 -31 127 -14 48 -24 99 -22 112 5 37 110 167 128 159
29 -13 215 -15 269 -3 l53 12 -4 50 c-7 64 -30 87 -104 102 l-58 12 49 18 c99
37 164 77 276 165 62 50 125 93 141 96 15 4 28 10 28 14 0 5 31 55 68 112 38
57 72 110 77 118 4 8 -21 -7 -57 -32 -36 -26 -72 -47 -79 -47 -8 0 -41 -21
-73 -48 -125 -100 -190 -142 -229 -147 -41 -5 -107 -28 -172 -60 -27 -13 -65
-29 -83 -36 -65 -23 -110 -66 -145 -136 -39 -79 -146 -237 -232 -342 l-60 -73
-49 6 c-69 8 -128 -8 -186 -50 -53 -38 -55 -55 -7 -70 44 -12 207 -129 207
-147 0 -25 -26 -74 -65 -122 -53 -67 -115 -194 -115 -237 0 -50 13 -54 86 -29
44 15 70 33 103 68 l43 48 -5 -35 c-37 -227 -35 -307 9 -369 16 -22 34 -41 40
-41 6 0 19 -9 29 -20 9 -10 34 -25 54 -31 20 -7 46 -19 58 -27 30 -19 61 -10
117 33 26 19 50 35 55 35 15 0 23 -39 16 -78 l-6 -37 27 40 c15 22 33 44 41
48 7 4 22 25 33 46 10 21 53 69 95 106 66 59 81 68 120 71 24 2 46 0 49 -5 11
-16 -17 -246 -32 -263 -9 -11 -13 -31 -10 -55 8 -57 43 -184 62 -221 22 -42
89 -91 138 -98 28 -5 38 -11 38 -25 0 -19 55 -42 75 -30 6 3 15 6 20 7 31 6
43 12 80 45 22 20 54 48 71 63 17 14 48 50 68 79 28 41 52 62 98 86 34 17 75
31 92 31 17 0 66 8 109 17 l78 17 29 -32 c20 -23 38 -32 59 -32 40 0 40 -13
-4 -103 -36 -75 -131 -192 -122 -150 3 13 -1 24 -9 27 -10 4 -14 -2 -14 -19 0
-26 -15 -41 -25 -25 -10 17 -41 11 -61 -11 -23 -26 -73 -49 -98 -45 -10 1 -26
13 -36 26 -18 24 -19 24 -39 6 -12 -11 -21 -24 -21 -31 0 -15 -35 -47 -42 -39
-3 3 -14 -8 -24 -25 -15 -25 -23 -29 -42 -24 -17 4 -23 2 -18 -5 5 -8 -2 -10
-22 -6 -17 4 -32 1 -36 -5 -4 -6 -12 -9 -17 -6 -5 4 -9 -1 -9 -9 0 -9 -4 -16
-9 -16 -5 0 -7 9 -4 20 3 11 0 26 -6 33 -6 8 -7 17 -3 22 4 4 -5 0 -21 -10
-24 -15 -27 -16 -21 -1 5 12 0 15 -19 14 -16 -1 -24 -8 -22 -18 1 -8 8 -14 15
-12 6 1 9 -2 5 -7 -3 -6 -13 -7 -22 -4 -10 4 -14 2 -10 -4 5 -7 -1 -9 -15 -5
-18 4 -20 2 -16 -16 4 -13 0 -23 -10 -27 -20 -7 -32 12 -32 51 0 30 -3 32 -63
48 -39 11 -85 15 -122 13 -33 -3 -72 0 -87 5 -46 16 -138 161 -153 240 -5 28
1 59 24 128 51 152 37 187 -40 99 -26 -30 -53 -54 -61 -54 -28 0 -6 -179 51
-425 10 -47 24 -125 31 -175 6 -49 20 -143 32 -207 17 -93 19 -123 10 -143
-14 -31 -45 -32 -91 -4 -40 24 -182 132 -256 194 -60 51 -211 149 -279 183
-54 26 -66 21 -66 -29 0 -15 -3 -40 -6 -57 -6 -27 -4 -29 19 -25 17 4 51 -10
111 -43 l85 -47 -34 -39 c-19 -21 -35 -42 -35 -47 0 -5 -9 -12 -19 -16 -11 -3
-23 -15 -26 -26 -4 -10 -12 -19 -19 -19 -7 0 -25 -14 -42 -31 -58 -61 -64 -58
-43 24 10 39 19 93 19 118 l0 46 -207 208 c-115 114 -232 236 -261 271 -80 96
-203 271 -246 349 -36 65 -38 75 -47 199 -5 72 -14 166 -20 208 -21 144 -9
716 17 838 20 92 109 374 144 461 70 169 313 537 455 688 95 101 162 145 390
254 273 131 358 166 510 211 66 20 131 41 145 47 37 16 150 45 317 80 81 18
164 35 183 40 58 13 476 3 547 -14z m-337 -1837 c0 -5 -5 -10 -11 -10 -5 0 -7
5 -4 10 3 6 8 10 11 10 2 0 4 -4 4 -10z m178 -17 c2 -16 -2 -23 -12 -23 -9 0
-16 8 -16 19 0 11 -6 22 -12 25 -7 3 -2 4 12 3 17 -1 26 -9 28 -24z m431 -389
c48 -20 59 -40 59 -109 1 -33 1 -74 1 -91 1 -17 10 -41 20 -53 23 -26 18 -45
-31 -127 -21 -36 -48 -62 -86 -85 -56 -35 -91 -66 -128 -115 l-21 -28 -12 52
c-10 48 -36 106 -78 173 -10 15 -14 35 -10 50 8 32 76 110 77 89 1 -10 4 -9
10 5 11 27 13 95 1 77 -11 -18 -91 -36 -103 -24 -14 14 31 42 67 42 72 0 76 5
90 117 2 18 6 37 10 43 8 13 85 4 134 -16z m-118 -875 c11 -5 16 -15 13 -21
-16 -25 -2 -125 27 -196 16 -40 29 -81 29 -91 0 -9 5 -22 12 -29 7 -7 8 -12 2
-12 -5 0 -2 -5 6 -10 13 -9 13 -11 0 -20 -8 -5 -10 -10 -5 -10 12 0 35 -76 32
-101 -5 -33 -136 -127 -158 -113 -6 3 -14 2 -18 -3 -4 -7 -14 -7 -31 0 -49 20
-100 8 -100 -24 0 -10 -4 -20 -10 -20 -5 -1 -15 -2 -21 -3 -15 -2 -49 -48 -49
-68 0 -10 7 -18 16 -18 12 0 14 -7 9 -30 -7 -30 -6 -31 22 -24 55 13 83 56 43
69 -11 3 -20 13 -20 21 0 20 13 17 28 -6 16 -27 24 -26 146 15 58 19 115 35
128 35 13 -1 -15 -13 -62 -29 -138 -46 -367 -178 -372 -216 -2 -12 -12 -21
-27 -23 -15 -2 -21 0 -16 7 3 6 -2 14 -12 18 -10 3 -27 14 -38 24 -11 10 -44
29 -73 44 l-53 27 50 51 c27 29 59 64 71 80 12 15 35 34 51 42 l29 16 1 -38
c0 -36 31 78 59 220 23 116 83 280 127 346 61 92 110 119 164 90z m-323 -314
c-9 -9 -30 14 -23 25 6 9 10 8 17 -4 6 -10 8 -19 6 -21z m-410 -249 c62 -39
69 -52 42 -81 l-22 -24 -48 30 c-26 16 -55 29 -64 29 -22 0 -20 11 9 43 31 33
36 33 83 3z m-435 -86 c0 -3 3 -16 8 -29 8 -18 6 -22 -5 -18 -8 3 -17 1 -20
-6 -3 -7 -4 4 -3 23 1 24 -2 34 -10 33 -7 -2 -13 -1 -13 2 0 3 6 12 13 19 10
12 14 11 21 -3 6 -9 9 -18 9 -21z m-33 -53 c0 -5 -4 -5 -10 -2 -5 3 -10 14
-10 23 0 15 2 15 10 2 5 -8 10 -19 10 -23z m158 -29 c6 -6 12 -19 12 -29 0
-11 16 -36 35 -58 19 -21 35 -45 35 -54 0 -8 24 -31 53 -50 74 -50 198 -179
188 -195 -6 -10 -14 -10 -36 -2 -16 6 -34 9 -42 6 -7 -3 -13 1 -13 9 0 8 -6
15 -14 15 -8 0 -16 7 -20 15 -3 8 -17 15 -31 15 -22 0 -25 4 -20 20 3 11 2 20
-3 20 -5 0 -22 11 -38 25 -42 36 -80 42 -115 16 -15 -12 -33 -21 -39 -21 -14
0 -13 -20 3 -21 6 -1 15 -1 19 0 4 0 5 -6 2 -14 -8 -21 -54 3 -54 28 0 10 27
45 60 77 l61 59 -51 47 c-28 26 -57 52 -65 58 -14 10 -14 14 2 33 18 23 43 23
71 1z m403 -358 c10 -6 19 -17 19 -25 0 -10 15 -15 52 -17 l51 -3 4 -50 c3
-49 3 -50 -13 -25 -14 23 -110 91 -148 106 -9 3 -16 10 -16 15 0 12 27 11 51
-1z"/>
<path d="M1935 4030 c-3 -6 1 -7 9 -4 18 7 21 14 7 14 -6 0 -13 -4 -16 -10z"/>
<path d="M2469 3810 c-46 -32 -113 -85 -149 -117 -36 -32 -78 -68 -94 -81 -16
-12 -27 -24 -25 -27 5 -4 13 2 119 95 34 30 99 81 144 113 84 60 104 77 94 77
-3 0 -43 -27 -89 -60z"/>
<path d="M3290 3834 c-17 -20 -29 -39 -26 -42 6 -5 66 58 66 71 0 13 -7 7 -40
-29z"/>
<path d="M1627 3801 c-59 -61 -70 -79 -39 -62 32 18 127 121 111 121 -9 0 -41
-27 -72 -59z"/>
<path d="M1357 3407 c-16 -13 -32 -81 -42 -187 -4 -36 -13 -87 -21 -114 -16
-58 -18 -106 -4 -106 6 0 10 7 10 15 0 9 6 15 13 14 28 -3 36 4 75 64 23 34
62 82 87 106 25 24 45 50 45 58 0 28 -41 94 -65 105 -14 6 -25 14 -25 17 0 4
-13 14 -29 24 -22 13 -31 14 -44 4z"/>
<path d="M1885 2863 c-40 -8 -64 -27 -80 -58 -21 -47 -19 -121 7 -175 l21 -45
7 35 c5 21 8 26 9 14 0 -12 14 -36 30 -53 27 -28 34 -31 93 -31 66 0 103 12
74 23 -9 4 -16 2 -16 -4 0 -6 -21 -9 -52 -7 l-53 3 -6 43 c-5 38 -3 42 15 42
12 -1 38 -7 58 -14 34 -12 38 -12 43 5 7 22 25 25 43 7 23 -23 14 57 -10 92
-23 33 -35 42 -73 56 -19 6 -18 7 4 13 l25 7 -28 22 c-16 12 -37 22 -47 22 -9
0 -23 2 -31 4 -7 2 -22 2 -33 -1z m71 -114 c3 -6 1 -16 -5 -22 -9 -9 -14 -8
-21 3 -9 15 -4 30 10 30 5 0 12 -5 16 -11z"/>
<path d="M3152 2622 c-20 -22 -30 -42 -27 -51 4 -11 15 -2 36 33 17 26 29 49
27 51 -2 1 -18 -14 -36 -33z"/>
<path d="M3092 2525 c-8 -16 -17 -23 -27 -19 -13 5 -15 0 -13 -29 2 -28 5 -34
15 -25 7 6 13 16 13 23 0 7 7 18 15 25 9 7 13 15 10 18 -3 3 0 11 6 19 7 7 7
13 2 13 -5 0 -15 -11 -21 -25z"/>
<path d="M2789 2389 c-76 -57 -115 -75 -242 -115 -152 -47 -263 -55 -332 -24
-85 37 -125 50 -125 39 0 -6 30 -25 68 -42 63 -30 73 -32 182 -32 122 0 202
19 390 92 78 31 145 85 136 109 -8 21 -18 18 -77 -27z"/>
<path d="M2935 2080 c-3 -5 -1 -10 4 -10 6 0 11 5 11 10 0 6 -2 10 -4 10 -3 0
-8 -4 -11 -10z"/>
<path d="M3183 1221 c-6 -22 -29 -35 -38 -21 -4 6 -11 10 -17 10 -6 0 -1 -8
10 -19 12 -10 22 -28 22 -40 0 -27 14 -27 33 2 13 18 16 19 16 5 1 -9 11 -24
22 -32 18 -12 20 -21 15 -50 -12 -61 35 -42 66 27 10 21 28 42 40 47 13 5 17
9 9 9 -8 1 -12 4 -9 7 3 3 -5 16 -17 30 -21 22 -26 24 -44 12 -12 -7 -19 -18
-17 -25 3 -7 -5 -10 -19 -8 -14 1 -22 -2 -19 -6 10 -17 -13 -9 -31 11 -10 11
-15 28 -12 40 3 11 3 20 0 20 -3 0 -7 -9 -10 -19z"/>
<path d="M3150 1089 c-7 -11 -9 -23 -6 -27 3 -3 6 0 6 6 0 6 11 9 25 6 27 -5
32 5 13 24 -17 17 -26 15 -38 -9z"/>
<path d="M3185 1050 c-3 -6 1 -7 9 -4 18 7 21 14 7 14 -6 0 -13 -4 -16 -10z"/>
<path d="M3026 805 c-3 -9 0 -15 8 -15 7 0 13 7 13 15 0 8 -4 15 -8 15 -4 0
-9 -7 -13 -15z"/>
</g>
</svg>
